<?xml version="1.0" encoding="UTF-8" standalone="no"?>
<!DOCTYPE svg PUBLIC "-//W3C//DTD SVG 1.1//EN"
 "http://www.w3.org/Graphics/SVG/1.1/DTD/svg11.dtd">
<!-- Generated by graphviz version 3.0.0 (20220226.1711)
 -->
<!-- Title: dependencies Pages: 1 -->
<svg width="298pt" height="174pt"
 viewBox="0.00 0.00 298.00 173.80" xmlns="http://www.w3.org/2000/svg" xmlns:xlink="http://www.w3.org/1999/xlink">
<g id="graph0" class="graph" transform="scale(1 1) rotate(0) translate(4 169.8)">
<title>dependencies</title>
<polygon fill="white" stroke="transparent" points="-4,4 -4,-169.8 294,-169.8 294,4 -4,4"/>
<text text-anchor="middle" x="145" y="-8.2" font-family="sans-serif" font-size="14.00">dependencies</text>
<g id="clust1" class="cluster">
<title>cluster_DeckModule</title>
<polygon fill="none" stroke="black" stroke-dasharray="1,5" points="8,-32.8 8,-157.8 282,-157.8 282,-32.8 8,-32.8"/>
</g>
<g id="clust3" class="cluster">
<title>cluster_DeckModule_imports</title>
<polygon fill="none" stroke="black" points="160,-40.8 160,-92.8 274,-92.8 274,-40.8 160,-40.8"/>
</g>
<g id="clust6" class="cluster">
<title>cluster_DeckModule_providers</title>
<polygon fill="none" stroke="black" points="16,-40.8 16,-92.8 152,-92.8 152,-40.8 16,-40.8"/>
</g>
<!-- PrismaModule -->
<g id="node1" class="node">
<title>PrismaModule</title>
<polygon fill="#8dd3c7" stroke="black" points="266.44,-84.8 263.44,-88.8 242.44,-88.8 239.44,-84.8 167.56,-84.8 167.56,-48.8 266.44,-48.8 266.44,-84.8"/>
<text text-anchor="middle" x="217" y="-62.6" font-family="Times,serif" font-size="14.00">PrismaModule</text>
</g>
<!-- DeckModule -->
<g id="node2" class="node">
<title>DeckModule</title>
<polygon fill="#8dd3c7" stroke="black" points="194.59,-149.8 191.59,-153.8 170.59,-153.8 167.59,-149.8 105.41,-149.8 105.41,-113.8 194.59,-113.8 194.59,-149.8"/>
<text text-anchor="middle" x="150" y="-127.6" font-family="Times,serif" font-size="14.00">DeckModule</text>
</g>
<!-- PrismaModule&#45;&gt;DeckModule -->
<g id="edge1" class="edge">
<title>PrismaModule&#45;&gt;DeckModule</title>
<path fill="none" stroke="black" d="M181.16,-84.91C181.16,-84.91 181.16,-103.79 181.16,-103.79"/>
<polygon fill="black" stroke="black" points="177.66,-103.79 181.16,-113.79 184.66,-103.79 177.66,-103.79"/>
</g>
<!-- DeckService -->
<g id="node3" class="node">
<title>DeckService</title>
<ellipse fill="#fdb462" stroke="black" cx="84" cy="-66.8" rx="60.24" ry="18"/>
<text text-anchor="middle" x="84" y="-62.6" font-family="Times,serif" font-size="14.00">DeckService</text>
</g>
<!-- DeckService&#45;&gt;DeckModule -->
<g id="edge2" class="edge">
<title>DeckService&#45;&gt;DeckModule</title>
<path fill="none" stroke="black" d="M124.91,-80.27C124.91,-80.27 124.91,-103.66 124.91,-103.66"/>
<polygon fill="black" stroke="black" points="121.41,-103.66 124.91,-113.66 128.41,-103.66 121.41,-103.66"/>
</g>
</g>
</svg>
