<?xml version="1.0" encoding="UTF-8" standalone="no"?>
<!DOCTYPE svg PUBLIC "-//W3C//DTD SVG 1.1//EN"
 "http://www.w3.org/Graphics/SVG/1.1/DTD/svg11.dtd">
<!-- Generated by graphviz version 3.0.0 (20220226.1711)
 -->
<!-- Title: dependencies Pages: 1 -->
<svg width="338pt" height="174pt"
 viewBox="0.00 0.00 338.00 173.80" xmlns="http://www.w3.org/2000/svg" xmlns:xlink="http://www.w3.org/1999/xlink">
<g id="graph0" class="graph" transform="scale(1 1) rotate(0) translate(4 169.8)">
<title>dependencies</title>
<polygon fill="white" stroke="transparent" points="-4,4 -4,-169.8 334,-169.8 334,4 -4,4"/>
<text text-anchor="middle" x="165" y="-8.2" font-family="sans-serif" font-size="14.00">dependencies</text>
<g id="clust1" class="cluster">
<title>cluster_CollectionModule</title>
<polygon fill="none" stroke="black" stroke-dasharray="1,5" points="8,-32.8 8,-157.8 322,-157.8 322,-32.8 8,-32.8"/>
</g>
<g id="clust6" class="cluster">
<title>cluster_CollectionModule_providers</title>
<polygon fill="none" stroke="black" points="138,-40.8 138,-92.8 314,-92.8 314,-40.8 138,-40.8"/>
</g>
<g id="clust3" class="cluster">
<title>cluster_CollectionModule_imports</title>
<polygon fill="none" stroke="black" points="16,-40.8 16,-92.8 130,-92.8 130,-40.8 16,-40.8"/>
</g>
<!-- PrismaModule -->
<g id="node1" class="node">
<title>PrismaModule</title>
<polygon fill="#8dd3c7" stroke="black" points="122.44,-84.8 119.44,-88.8 98.44,-88.8 95.44,-84.8 23.56,-84.8 23.56,-48.8 122.44,-48.8 122.44,-84.8"/>
<text text-anchor="middle" x="73" y="-62.6" font-family="Times,serif" font-size="14.00">PrismaModule</text>
</g>
<!-- CollectionModule -->
<g id="node2" class="node">
<title>CollectionModule</title>
<polygon fill="#8dd3c7" stroke="black" points="208.88,-149.8 205.88,-153.8 184.88,-153.8 181.88,-149.8 91.12,-149.8 91.12,-113.8 208.88,-113.8 208.88,-149.8"/>
<text text-anchor="middle" x="150" y="-127.6" font-family="Times,serif" font-size="14.00">CollectionModule</text>
</g>
<!-- PrismaModule&#45;&gt;CollectionModule -->
<g id="edge1" class="edge">
<title>PrismaModule&#45;&gt;CollectionModule</title>
<path fill="none" stroke="black" d="M106.64,-84.91C106.64,-84.91 106.64,-103.79 106.64,-103.79"/>
<polygon fill="black" stroke="black" points="103.14,-103.79 106.64,-113.79 110.14,-103.79 103.14,-103.79"/>
</g>
<!-- CollectionService -->
<g id="node3" class="node">
<title>CollectionService</title>
<ellipse fill="#fdb462" stroke="black" cx="226" cy="-66.8" rx="80.45" ry="18"/>
<text text-anchor="middle" x="226" y="-62.6" font-family="Times,serif" font-size="14.00">CollectionService</text>
</g>
<!-- CollectionService&#45;&gt;CollectionModule -->
<g id="edge2" class="edge">
<title>CollectionService&#45;&gt;CollectionModule</title>
<path fill="none" stroke="black" d="M177.36,-81.23C177.36,-81.23 177.36,-103.69 177.36,-103.69"/>
<polygon fill="black" stroke="black" points="173.86,-103.69 177.36,-113.69 180.86,-103.69 173.86,-103.69"/>
</g>
</g>
</svg>
