<?xml version="1.0" encoding="UTF-8" standalone="no"?>
<!DOCTYPE svg PUBLIC "-//W3C//DTD SVG 1.1//EN"
 "http://www.w3.org/Graphics/SVG/1.1/DTD/svg11.dtd">
<!-- Generated by graphviz version 3.0.0 (20220226.1711)
 -->
<!-- Title: dependencies Pages: 1 -->
<svg width="960pt" height="174pt"
 viewBox="0.00 0.00 960.00 173.80" xmlns="http://www.w3.org/2000/svg" xmlns:xlink="http://www.w3.org/1999/xlink">
<g id="graph0" class="graph" transform="scale(1 1) rotate(0) translate(4 169.8)">
<title>dependencies</title>
<polygon fill="white" stroke="transparent" points="-4,4 -4,-169.8 956,-169.8 956,4 -4,4"/>
<text text-anchor="middle" x="476" y="-8.2" font-family="sans-serif" font-size="14.00">dependencies</text>
<g id="clust1" class="cluster">
<title>cluster_AppModule</title>
<polygon fill="none" stroke="black" stroke-dasharray="1,5" points="8,-32.8 8,-157.8 944,-157.8 944,-32.8 8,-32.8"/>
</g>
<g id="clust6" class="cluster">
<title>cluster_AppModule_providers</title>
<polygon fill="none" stroke="black" points="806,-40.8 806,-92.8 936,-92.8 936,-40.8 806,-40.8"/>
</g>
<g id="clust3" class="cluster">
<title>cluster_AppModule_imports</title>
<polygon fill="none" stroke="black" points="16,-40.8 16,-92.8 798,-92.8 798,-40.8 16,-40.8"/>
</g>
<!-- AuthModule -->
<g id="node1" class="node">
<title>AuthModule</title>
<polygon fill="#8dd3c7" stroke="black" points="789.55,-84.8 786.55,-88.8 765.55,-88.8 762.55,-84.8 702.45,-84.8 702.45,-48.8 789.55,-48.8 789.55,-84.8"/>
<text text-anchor="middle" x="746" y="-62.6" font-family="Times,serif" font-size="14.00">AuthModule</text>
</g>
<!-- AppModule -->
<g id="node8" class="node">
<title>AppModule</title>
<polygon fill="#8dd3c7" stroke="black" points="501.66,-149.8 498.66,-153.8 477.66,-153.8 474.66,-149.8 418.34,-149.8 418.34,-113.8 501.66,-113.8 501.66,-149.8"/>
<text text-anchor="middle" x="460" y="-127.6" font-family="Times,serif" font-size="14.00">AppModule</text>
</g>
<!-- AuthModule&#45;&gt;AppModule -->
<g id="edge1" class="edge">
<title>AuthModule&#45;&gt;AppModule</title>
<path fill="none" stroke="black" d="M746,-84.91C746,-104.14 746,-131.8 746,-131.8 746,-131.8 511.89,-131.8 511.89,-131.8"/>
<polygon fill="black" stroke="black" points="511.89,-128.3 501.89,-131.8 511.89,-135.3 511.89,-128.3"/>
</g>
<!-- CardModule -->
<g id="node2" class="node">
<title>CardModule</title>
<polygon fill="#8dd3c7" stroke="black" points="684.27,-84.8 681.27,-88.8 660.27,-88.8 657.27,-84.8 597.73,-84.8 597.73,-48.8 684.27,-48.8 684.27,-84.8"/>
<text text-anchor="middle" x="641" y="-62.6" font-family="Times,serif" font-size="14.00">CardModule</text>
</g>
<!-- CardModule&#45;&gt;AppModule -->
<g id="edge2" class="edge">
<title>CardModule&#45;&gt;AppModule</title>
<path fill="none" stroke="black" d="M641,-84.83C641,-101.2 641,-122.8 641,-122.8 641,-122.8 511.98,-122.8 511.98,-122.8"/>
<polygon fill="black" stroke="black" points="511.98,-119.3 501.98,-122.8 511.98,-126.3 511.98,-119.3"/>
</g>
<!-- CollectionModule -->
<g id="node3" class="node">
<title>CollectionModule</title>
<polygon fill="#8dd3c7" stroke="black" points="579.88,-84.8 576.88,-88.8 555.88,-88.8 552.88,-84.8 462.12,-84.8 462.12,-48.8 579.88,-48.8 579.88,-84.8"/>
<text text-anchor="middle" x="521" y="-62.6" font-family="Times,serif" font-size="14.00">CollectionModule</text>
</g>
<!-- CollectionModule&#45;&gt;AppModule -->
<g id="edge3" class="edge">
<title>CollectionModule&#45;&gt;AppModule</title>
<path fill="none" stroke="black" d="M481.95,-84.91C481.95,-84.91 481.95,-103.79 481.95,-103.79"/>
<polygon fill="black" stroke="black" points="478.45,-103.79 481.95,-113.79 485.45,-103.79 478.45,-103.79"/>
</g>
<!-- DeckModule -->
<g id="node4" class="node">
<title>DeckModule</title>
<polygon fill="#8dd3c7" stroke="black" points="444.59,-84.8 441.59,-88.8 420.59,-88.8 417.59,-84.8 355.41,-84.8 355.41,-48.8 444.59,-48.8 444.59,-84.8"/>
<text text-anchor="middle" x="400" y="-62.6" font-family="Times,serif" font-size="14.00">DeckModule</text>
</g>
<!-- DeckModule&#45;&gt;AppModule -->
<g id="edge4" class="edge">
<title>DeckModule&#45;&gt;AppModule</title>
<path fill="none" stroke="black" d="M431.36,-84.91C431.36,-84.91 431.36,-103.79 431.36,-103.79"/>
<polygon fill="black" stroke="black" points="427.86,-103.79 431.36,-113.79 434.86,-103.79 427.86,-103.79"/>
</g>
<!-- PackModule -->
<g id="node5" class="node">
<title>PackModule</title>
<polygon fill="#8dd3c7" stroke="black" points="337.27,-84.8 334.27,-88.8 313.27,-88.8 310.27,-84.8 250.73,-84.8 250.73,-48.8 337.27,-48.8 337.27,-84.8"/>
<text text-anchor="middle" x="294" y="-62.6" font-family="Times,serif" font-size="14.00">PackModule</text>
</g>
<!-- PackModule&#45;&gt;AppModule -->
<g id="edge5" class="edge">
<title>PackModule&#45;&gt;AppModule</title>
<path fill="none" stroke="black" d="M294,-84.83C294,-101.2 294,-122.8 294,-122.8 294,-122.8 408.11,-122.8 408.11,-122.8"/>
<polygon fill="black" stroke="black" points="408.11,-126.3 418.11,-122.8 408.11,-119.3 408.11,-126.3"/>
</g>
<!-- PrismaModule -->
<g id="node6" class="node">
<title>PrismaModule</title>
<polygon fill="#8dd3c7" stroke="black" points="232.44,-84.8 229.44,-88.8 208.44,-88.8 205.44,-84.8 133.56,-84.8 133.56,-48.8 232.44,-48.8 232.44,-84.8"/>
<text text-anchor="middle" x="183" y="-62.6" font-family="Times,serif" font-size="14.00">PrismaModule</text>
</g>
<!-- PrismaModule&#45;&gt;AppModule -->
<g id="edge6" class="edge">
<title>PrismaModule&#45;&gt;AppModule</title>
<path fill="none" stroke="black" d="M183,-84.91C183,-104.14 183,-131.8 183,-131.8 183,-131.8 408.23,-131.8 408.23,-131.8"/>
<polygon fill="black" stroke="black" points="408.23,-135.3 418.23,-131.8 408.23,-128.3 408.23,-135.3"/>
</g>
<!-- UsersModule -->
<g id="node7" class="node">
<title>UsersModule</title>
<polygon fill="#8dd3c7" stroke="black" points="115.94,-84.8 112.94,-88.8 91.94,-88.8 88.94,-84.8 24.06,-84.8 24.06,-48.8 115.94,-48.8 115.94,-84.8"/>
<text text-anchor="middle" x="70" y="-62.6" font-family="Times,serif" font-size="14.00">UsersModule</text>
</g>
<!-- UsersModule&#45;&gt;AppModule -->
<g id="edge7" class="edge">
<title>UsersModule&#45;&gt;AppModule</title>
<path fill="none" stroke="black" d="M70,-85.09C70,-107.01 70,-140.8 70,-140.8 70,-140.8 408.26,-140.8 408.26,-140.8"/>
<polygon fill="black" stroke="black" points="408.26,-144.3 418.26,-140.8 408.26,-137.3 408.26,-144.3"/>
</g>
<!-- AppService -->
<g id="node9" class="node">
<title>AppService</title>
<ellipse fill="#fdb462" stroke="black" cx="871" cy="-66.8" rx="56.75" ry="18"/>
<text text-anchor="middle" x="871" y="-62.6" font-family="Times,serif" font-size="14.00">AppService</text>
</g>
<!-- AppService&#45;&gt;AppModule -->
<g id="edge8" class="edge">
<title>AppService&#45;&gt;AppModule</title>
<path fill="none" stroke="black" d="M871,-85.09C871,-107.01 871,-140.8 871,-140.8 871,-140.8 511.67,-140.8 511.67,-140.8"/>
<polygon fill="black" stroke="black" points="511.67,-137.3 501.67,-140.8 511.67,-144.3 511.67,-137.3"/>
</g>
</g>
</svg>
